<svg width="32" height="32" viewBox="0 0 32 32" fill="none" xmlns="http://www.w3.org/2000/svg">
<path d="M24.7179 13.947V13.7249C24.7176 13.4034 24.5897 13.0951 24.3624 12.8678C24.1351 12.6405 23.8269 12.5126 23.5054 12.5122H22.9357C22.8405 12.301 22.7333 12.0954 22.6146 11.8965C22.4743 11.6702 22.3561 11.431 22.2617 11.182C22.1837 10.9475 22.1531 10.6766 22.1206 10.3897C22.0668 9.91434 22.0112 9.42281 21.7295 9.01554C21.4485 8.60944 21.0087 8.38426 20.5833 8.16648C20.3257 8.03464 20.0825 7.91014 19.8895 7.75382C19.6908 7.57864 19.5095 7.38466 19.3482 7.17457C19.0375 6.79847 18.7164 6.40962 18.2449 6.23157C17.7666 6.05095 17.2596 6.13957 16.7692 6.22532C16.5158 6.27764 16.2585 6.30841 16 6.3173C15.7415 6.30841 15.4842 6.27764 15.2308 6.22532C14.7405 6.13959 14.2336 6.05101 13.7551 6.23157C13.2836 6.40961 12.9625 6.79844 12.6518 7.17456C12.4905 7.38465 12.3092 7.57863 12.1105 7.75379C11.9175 7.91013 11.6743 8.03464 11.4167 8.16647C10.9913 8.38425 10.5514 8.60944 10.2706 9.01551C9.98877 9.42279 9.93317 9.91434 9.87939 10.3897C9.84692 10.6766 9.81627 10.9475 9.73828 11.182C9.64392 11.431 9.52574 11.6702 9.38538 11.8965C9.26666 12.0954 9.15944 12.301 9.06426 12.5122H8.49463C8.17314 12.5126 7.86492 12.6405 7.63759 12.8678C7.41027 13.0951 7.2824 13.4034 7.28204 13.7249V13.947C7.28238 14.209 7.36742 14.4639 7.52448 14.6736C7.68155 14.8834 7.90222 15.0367 8.15356 15.1107C7.65133 17.4391 7.6769 19.8503 8.22839 22.1674C8.26888 22.3353 8.2689 22.5103 8.22844 22.6782C8.18799 22.846 8.10823 23.0018 7.99572 23.1328L7.79236 23.3675C7.25867 23.9834 7.29981 24.9268 7.88409 25.4706C8.16067 25.7301 8.52591 25.8743 8.90521 25.8737C8.93262 25.8737 8.96027 25.8729 8.98791 25.8715C9.18944 25.8614 9.38682 25.8104 9.56805 25.7217C9.74928 25.633 9.91059 25.5083 10.0422 25.3553L10.056 25.3393C10.1899 25.1857 10.3644 25.0728 10.5595 25.0136C10.7546 24.9544 10.9624 24.9513 11.1592 25.0047L11.7845 25.1762C14.516 25.9248 17.398 25.9294 20.1319 25.1894L20.8391 24.9979C21.0355 24.9454 21.2426 24.9491 21.437 25.0084C21.6314 25.0677 21.8052 25.1803 21.9388 25.3335C22.4725 25.9494 23.4122 26.0429 24.0336 25.542C24.1907 25.4155 24.3207 25.2587 24.4159 25.0808C24.511 24.903 24.5694 24.7078 24.5874 24.5069C24.6055 24.306 24.5828 24.1036 24.5209 23.9116C24.4589 23.7197 24.3589 23.5422 24.2269 23.3897L24.0043 23.1328C23.8918 23.0019 23.812 22.8461 23.7716 22.6782C23.7311 22.5104 23.7311 22.3353 23.7716 22.1675C24.323 19.8503 24.3486 17.4391 23.8464 15.1108C24.0978 15.0367 24.3185 14.8834 24.4755 14.6737C24.6326 14.4639 24.7176 14.209 24.7179 13.947ZM19.3811 10.166C19.4225 10.0902 19.4855 10.0284 19.562 9.98832C19.6386 9.94828 19.7253 9.93185 19.8112 9.9411C19.8972 9.95035 19.9784 9.98487 20.0447 10.0403C20.111 10.0957 20.1593 10.1695 20.1837 10.2524C20.208 10.3354 20.2072 10.4236 20.1814 10.5061C20.1555 10.5885 20.1058 10.6615 20.0386 10.7157C19.9713 10.7699 19.8894 10.8029 19.8034 10.8106C19.7173 10.8183 19.6309 10.8003 19.5551 10.7589C19.5047 10.7314 19.4603 10.6942 19.4243 10.6495C19.3883 10.6049 19.3614 10.5535 19.3453 10.4985C19.3291 10.4434 19.324 10.3857 19.3301 10.3287C19.3362 10.2717 19.3536 10.2164 19.3811 10.166ZM18.2367 11.5676C18.1953 11.6434 18.1323 11.7052 18.0557 11.7453C17.9792 11.7853 17.8924 11.8017 17.8065 11.7925C17.7206 11.7832 17.6394 11.7487 17.5731 11.6933C17.5068 11.6379 17.4584 11.5641 17.4341 11.4811C17.4098 11.3982 17.4106 11.31 17.4364 11.2275C17.4622 11.1451 17.5119 11.0721 17.5792 11.0179C17.6465 10.9637 17.7284 10.9307 17.8144 10.923C17.9005 10.9153 17.9869 10.9333 18.0627 10.9747C18.1131 11.0022 18.1575 11.0394 18.1935 11.084C18.2295 11.1287 18.2563 11.1801 18.2725 11.2351C18.2887 11.2902 18.2938 11.3479 18.2877 11.4049C18.2815 11.4619 18.2642 11.5172 18.2367 11.5676ZM17.2639 9.00959C17.3053 8.93376 17.3683 8.87191 17.4449 8.83188C17.5215 8.79184 17.6082 8.77541 17.6941 8.78466C17.78 8.79391 17.8612 8.82842 17.9275 8.88384C17.9938 8.93926 18.0422 9.01309 18.0665 9.096C18.0908 9.17891 18.09 9.26717 18.0642 9.34962C18.0384 9.43208 17.9887 9.50502 17.9214 9.55923C17.8541 9.61344 17.7723 9.64647 17.6862 9.65416C17.6001 9.66185 17.5137 9.64385 17.4379 9.60243C17.3875 9.57493 17.3431 9.53778 17.3071 9.4931C17.2711 9.44842 17.2443 9.39709 17.2281 9.34204C17.212 9.28699 17.2068 9.2293 17.213 9.17225C17.2191 9.11521 17.2364 9.05994 17.2639 9.00959ZM24.1554 13.947C24.1553 14.1194 24.0867 14.2846 23.9648 14.4065C23.843 14.5283 23.6777 14.5969 23.5054 14.5971C23.4629 14.5971 23.421 14.6067 23.3828 14.6252C23.3446 14.6437 23.3111 14.6706 23.2847 14.7039C23.2584 14.7372 23.2399 14.776 23.2308 14.8175C23.2216 14.8589 23.2219 14.9019 23.2317 14.9432C23.7819 17.2759 23.7795 19.7049 23.2246 22.0365C23.1634 22.2913 23.1636 22.5569 23.2252 22.8116C23.2869 23.0662 23.4082 23.3026 23.5791 23.5011L23.8017 23.758C23.8843 23.8533 23.9469 23.9644 23.9856 24.0844C24.0243 24.2045 24.0385 24.3311 24.0272 24.4567C24.0159 24.5824 23.9793 24.7045 23.9198 24.8157C23.8602 24.9269 23.7788 25.0249 23.6805 25.104C23.2923 25.4169 22.7016 25.3548 22.364 24.9651C22.1609 24.7322 21.8965 24.561 21.601 24.4709C21.3054 24.3807 20.9905 24.3752 20.692 24.4549L19.9848 24.6465C17.3478 25.3602 14.568 25.3558 11.9333 24.6336L11.308 24.4621C11.0088 24.3811 10.6929 24.3859 10.3963 24.4759C10.0997 24.5659 9.83436 24.7375 9.63066 24.9711L9.61681 24.9872C9.53419 25.0825 9.43321 25.1602 9.31989 25.2156C9.20656 25.2711 9.08323 25.3031 8.95726 25.3098C8.83129 25.3165 8.70526 25.2977 8.58671 25.2546C8.46815 25.2114 8.35951 25.1449 8.26726 25.0588C7.90215 24.719 7.87981 24.1255 8.21746 23.7359L8.42089 23.5011C8.59182 23.3025 8.7131 23.0662 8.77473 22.8115C8.83637 22.5569 8.83659 22.2913 8.77537 22.0365C8.23835 19.7777 8.21955 17.4267 8.72037 15.1596H21.0602C21.1348 15.1596 21.2064 15.1299 21.2591 15.0772C21.3119 15.0244 21.3415 14.9529 21.3415 14.8783C21.3415 14.8037 21.3119 14.7322 21.2591 14.6794C21.2064 14.6267 21.1348 14.5971 21.0602 14.5971H8.49461C8.32226 14.5969 8.15702 14.5283 8.03514 14.4064C7.91327 14.2846 7.84472 14.1193 7.84452 13.947V13.7248C7.84471 13.5525 7.91326 13.3872 8.03514 13.2654C8.15701 13.1435 8.32225 13.0749 8.49461 13.0747H23.5054C23.6777 13.0749 23.843 13.1435 23.9648 13.2654C24.0867 13.3872 24.1553 13.5525 24.1554 13.7248L24.1554 13.947Z" fill="black"/>
<path d="M18.5604 17.6484C17.6945 17.8149 16.9166 18.2853 16.3669 18.9748C16.225 19.1528 16.102 19.3452 16 19.5488C15.898 19.3452 15.775 19.1528 15.633 18.9748C15.0834 18.2853 14.3055 17.8149 13.4396 17.6484C13.3699 17.6357 13.298 17.6496 13.2382 17.6875C13.1784 17.7254 13.1351 17.7845 13.1169 17.8529C12.9264 18.5705 13.1381 19.3862 13.6976 20.0909C14.21 20.7326 14.9208 21.1863 15.7187 21.3806V22.445C15.7187 22.5196 15.7484 22.5911 15.8011 22.6439C15.8539 22.6966 15.9254 22.7262 16 22.7262C16.0746 22.7262 16.1461 22.6966 16.1989 22.6439C16.2516 22.5911 16.2812 22.5196 16.2812 22.445V21.3806C17.0791 21.1863 17.79 20.7327 18.3024 20.0909C18.8619 19.3863 19.0735 18.5706 18.8831 17.8529C18.865 17.7845 18.8216 17.7254 18.7618 17.6875C18.702 17.6496 18.6301 17.6356 18.5604 17.6484Z" fill="black"/>
</svg>
