<svg width="32" height="32" viewBox="0 0 32 32" fill="none" xmlns="http://www.w3.org/2000/svg">
<path d="M15.5697 17.542C15.8494 17.5418 16.1284 17.5118 16.4017 17.4524C16.4545 17.441 16.5029 17.4146 16.5411 17.3764C16.5793 17.3382 16.6057 17.2898 16.6171 17.237C16.8934 15.9613 16.522 14.6632 15.6235 13.7647C14.725 12.8662 13.4267 12.4949 12.1512 12.7711C12.0984 12.7825 12.05 12.8089 12.0118 12.8471C11.9736 12.8853 11.9472 12.9337 11.9358 12.9865C11.6595 14.2622 12.0309 15.5603 12.9294 16.4588C13.2765 16.8043 13.6884 17.0779 14.1415 17.2638C14.5946 17.4497 15.08 17.5443 15.5697 17.542Z" fill="black"/>
<path d="M17.053 12.5506C17.3264 12.61 17.6053 12.64 17.8851 12.6402C18.3748 12.6424 18.8602 12.5478 19.3133 12.362C19.7664 12.1761 20.1783 11.9025 20.5253 11.557C21.4239 10.6584 21.7953 9.36031 21.5189 8.08461C21.5075 8.03184 21.4811 7.98348 21.4429 7.94529C21.4047 7.90711 21.3563 7.88072 21.3036 7.86928C20.0278 7.59298 18.7298 7.96428 17.8312 8.86288C16.9327 9.76147 16.5613 11.0595 16.8376 12.3352C16.8491 12.388 16.8755 12.4364 16.9136 12.4745C16.9518 12.5127 17.0002 12.5391 17.053 12.5506Z" fill="black"/>
<path d="M27.5801 12.0726H25.7562C24.4127 12.0726 23.214 12.9889 22.8414 14.3008C22.4175 15.7883 21.5203 17.0971 20.2858 18.029C19.0513 18.9609 17.5467 19.465 16 19.465C14.4533 19.465 12.9487 18.9609 11.7142 18.029C10.4797 17.0971 9.5825 15.7883 9.15863 14.3008C8.78595 12.9889 7.58734 12.0726 6.24384 12.0726H4.41986C4.34527 12.0726 4.27373 12.1023 4.22099 12.155C4.16824 12.2078 4.13861 12.2793 4.13861 12.3539C4.13861 12.4285 4.16824 12.5 4.22099 12.5528C4.27373 12.6055 4.34527 12.6351 4.41986 12.6351H6.24384C6.78312 12.6405 7.30608 12.8208 7.73413 13.1489C8.16217 13.477 8.47216 13.9351 8.6175 14.4545C9.07349 16.0416 10.0259 17.4408 11.3351 18.4472C12.6742 19.4721 14.3136 20.0275 16 20.0275C17.6864 20.0275 19.3258 19.4721 20.6649 18.4472C21.9741 17.4408 22.9265 16.0416 23.3825 14.4545C23.5278 13.9351 23.8378 13.477 24.2659 13.1489C24.6939 12.8208 25.2169 12.6405 25.7562 12.6351H27.5801C27.6547 12.6351 27.7263 12.6055 27.779 12.5528C27.8317 12.5 27.8614 12.4285 27.8614 12.3539C27.8614 12.2793 27.8317 12.2078 27.779 12.155C27.7263 12.1023 27.6547 12.0726 27.5801 12.0726Z" fill="black"/>
<path d="M22.0696 20.0256C21.9937 19.9842 21.9073 19.9662 21.8213 19.9739C21.7352 19.9816 21.6534 20.0146 21.5861 20.0688C21.5188 20.123 21.4691 20.196 21.4433 20.2784C21.4174 20.3609 21.4166 20.4492 21.441 20.5321C21.4653 20.615 21.5137 20.6888 21.58 20.7442C21.6462 20.7996 21.7275 20.8342 21.8134 20.8434C21.8993 20.8527 21.986 20.8362 22.0626 20.7962C22.1392 20.7561 22.2021 20.6943 22.2436 20.6185C22.2711 20.5681 22.2884 20.5129 22.2945 20.4558C22.3007 20.3988 22.2955 20.3411 22.2794 20.286C22.2632 20.231 22.2364 20.1796 22.2004 20.135C22.1644 20.0903 22.1199 20.0531 22.0696 20.0256Z" fill="black"/>
<path d="M25.6427 20.0256C25.5669 19.9842 25.4805 19.9662 25.3944 19.9739C25.3083 19.9816 25.2265 20.0146 25.1592 20.0688C25.0919 20.123 25.0422 20.196 25.0164 20.2784C24.9905 20.3609 24.9897 20.4492 25.0141 20.5321C25.0384 20.615 25.0868 20.6888 25.1531 20.7442C25.2194 20.7996 25.3006 20.8342 25.3865 20.8434C25.4724 20.8527 25.5591 20.8362 25.6357 20.7962C25.7123 20.7561 25.7753 20.6943 25.8167 20.6185C25.8442 20.5681 25.8615 20.5129 25.8676 20.4558C25.8738 20.3988 25.8686 20.3411 25.8525 20.286C25.8363 20.231 25.8095 20.1796 25.7735 20.135C25.7375 20.0903 25.693 20.0531 25.6427 20.0256Z" fill="black"/>
<path d="M14.4228 23.4C14.347 23.3586 14.2606 23.3406 14.1745 23.3483C14.0885 23.356 14.0066 23.389 13.9393 23.4432C13.8721 23.4974 13.8224 23.5704 13.7965 23.6528C13.7707 23.7353 13.7699 23.8235 13.7942 23.9065C13.8186 23.9894 13.8669 24.0632 13.9332 24.1186C13.9995 24.174 14.0808 24.2085 14.1667 24.2178C14.2526 24.227 14.3393 24.2106 14.4159 24.1706C14.4924 24.1305 14.5554 24.0687 14.5968 23.9929C14.6243 23.9425 14.6416 23.8872 14.6478 23.8302C14.6539 23.7732 14.6488 23.7155 14.6326 23.6604C14.6165 23.6054 14.5896 23.554 14.5536 23.5093C14.5176 23.4647 14.4732 23.4275 14.4228 23.4Z" fill="black"/>
<path d="M17.996 23.4C17.9201 23.3586 17.8337 23.3406 17.7477 23.3483C17.6616 23.356 17.5797 23.389 17.5125 23.4432C17.4452 23.4974 17.3955 23.5704 17.3696 23.6528C17.3438 23.7353 17.343 23.8235 17.3673 23.9065C17.3917 23.9894 17.4401 24.0632 17.5063 24.1186C17.5726 24.174 17.6539 24.2085 17.7398 24.2178C17.8257 24.227 17.9124 24.2106 17.989 24.1706C18.0655 24.1305 18.1285 24.0687 18.1699 23.9929C18.1975 23.9425 18.2148 23.8872 18.2209 23.8302C18.2271 23.7732 18.2219 23.7155 18.2057 23.6604C18.1896 23.6054 18.1627 23.554 18.1267 23.5093C18.0908 23.4647 18.0463 23.4275 17.996 23.4Z" fill="black"/>
<path d="M25.6427 16.148C25.5669 16.1066 25.4805 16.0886 25.3944 16.0963C25.3083 16.104 25.2265 16.137 25.1592 16.1912C25.0919 16.2454 25.0422 16.3184 25.0164 16.4008C24.9905 16.4833 24.9897 16.5715 25.0141 16.6544C25.0384 16.7373 25.0868 16.8112 25.1531 16.8666C25.2194 16.922 25.3006 16.9565 25.3865 16.9658C25.4724 16.975 25.5591 16.9586 25.6357 16.9186C25.7123 16.8785 25.7753 16.8167 25.8167 16.7409C25.8442 16.6905 25.8615 16.6352 25.8676 16.5782C25.8738 16.5211 25.8686 16.4635 25.8525 16.4084C25.8363 16.3533 25.8095 16.302 25.7735 16.2573C25.7375 16.2127 25.693 16.1755 25.6427 16.148Z" fill="black"/>
<path d="M9.93044 20.0256C9.85461 20.067 9.79277 20.13 9.75273 20.2066C9.7127 20.2831 9.69626 20.3698 9.70551 20.4558C9.71476 20.5417 9.74928 20.6229 9.8047 20.6892C9.86012 20.7555 9.93395 20.8038 10.0169 20.8282C10.0998 20.8525 10.188 20.8517 10.2705 20.8259C10.3529 20.8 10.4259 20.7503 10.4801 20.6831C10.5343 20.6158 10.5673 20.5339 10.575 20.4479C10.5827 20.3618 10.5647 20.2754 10.5233 20.1996C10.4958 20.1492 10.4586 20.1048 10.414 20.0688C10.3693 20.0328 10.318 20.0059 10.2629 19.9898C10.2078 19.9736 10.1502 19.9685 10.0931 19.9746C10.0361 19.9808 9.98079 19.9981 9.93044 20.0256Z" fill="black"/>
<path d="M6.35732 20.0256C6.28149 20.067 6.21965 20.13 6.17961 20.2066C6.13958 20.2831 6.12314 20.3698 6.13239 20.4558C6.14164 20.5417 6.17616 20.6229 6.23158 20.6892C6.287 20.7555 6.36083 20.8038 6.44374 20.8282C6.52665 20.8525 6.61491 20.8517 6.69736 20.8259C6.77981 20.8 6.85276 20.7503 6.90696 20.6831C6.96117 20.6158 6.99421 20.5339 7.0019 20.4479C7.00959 20.3618 6.99159 20.2754 6.95017 20.1996C6.92267 20.1492 6.88552 20.1048 6.84084 20.0688C6.79616 20.0328 6.74483 20.0059 6.68978 19.9898C6.63473 19.9736 6.57703 19.9685 6.51999 19.9746C6.46294 19.9808 6.40767 19.9981 6.35732 20.0256Z" fill="black"/>
<path d="M6.35732 16.148C6.28149 16.1894 6.21965 16.2524 6.17961 16.329C6.13958 16.4056 6.12314 16.4923 6.13239 16.5782C6.14164 16.6641 6.17616 16.7453 6.23158 16.8116C6.287 16.8779 6.36083 16.9263 6.44374 16.9506C6.52665 16.9749 6.61491 16.9741 6.69736 16.9483C6.77981 16.9225 6.85276 16.8728 6.90696 16.8055C6.96117 16.7382 6.99421 16.6564 7.0019 16.5703C7.00959 16.4842 6.99159 16.3978 6.95017 16.322C6.92267 16.2716 6.88552 16.2272 6.84084 16.1912C6.79616 16.1552 6.74483 16.1284 6.68978 16.1122C6.63473 16.0961 6.57703 16.0909 6.51999 16.0971C6.46294 16.1032 6.40767 16.1205 6.35732 16.148Z" fill="black"/>
</svg>
