<svg width="32" height="32" viewBox="0 0 32 32" fill="none" xmlns="http://www.w3.org/2000/svg">
<path d="M23.1612 19.1033L18.1654 14.1075L16.7303 12.6723V7.60477C16.7295 6.91881 16.4567 6.26117 15.9716 5.77612C15.4866 5.29106 14.8289 5.01821 14.143 5.01743H13.5846C13.51 5.01743 13.4384 5.04706 13.3857 5.0998C13.333 5.15255 13.3033 5.22408 13.3033 5.29868V11.717L9.13023 7.54383C9.10411 7.5177 9.07311 7.49698 9.03898 7.48284C9.00486 7.4687 8.96828 7.46142 8.93134 7.46142C8.89441 7.46142 8.85783 7.4687 8.8237 7.48284C8.78958 7.49698 8.75857 7.5177 8.73246 7.54383L8.33762 7.93866C7.85314 8.42425 7.58105 9.08218 7.58105 9.76813C7.58105 10.4541 7.85314 11.112 8.33762 11.5976L12.8758 16.1358C13.0227 16.2827 13.1866 16.4116 13.364 16.5196V23.3939C13.3623 24.0409 13.5077 24.6799 13.7893 25.2625C14.0708 25.8451 14.4811 26.3561 14.9891 26.7569C15.1418 26.878 15.3255 26.9535 15.5192 26.975C15.7128 26.9964 15.9086 26.9628 16.0841 26.878C16.2595 26.7932 16.4075 26.6607 16.511 26.4957C16.6146 26.3306 16.6695 26.1397 16.6695 25.9449V18.0992L15.4057 16.7975C15.5971 16.7441 15.7816 16.6685 15.9554 16.5723L22.6277 23.2444C22.7232 23.3408 22.8368 23.4173 22.9621 23.4696C23.0873 23.5219 23.2216 23.5488 23.3573 23.549C23.4745 23.5489 23.5909 23.529 23.7015 23.4903C23.886 23.427 24.0487 23.3126 24.1706 23.1603C24.2925 23.008 24.3687 22.8243 24.3901 22.6304C24.466 21.9878 24.3948 21.3363 24.1819 20.7253C23.969 20.1143 23.6199 19.5596 23.1612 19.1033ZM14.143 5.57993C14.6798 5.58054 15.1945 5.79407 15.5741 6.17367C15.9536 6.55327 16.1672 7.06794 16.1678 7.60477V12.1099L15.944 11.8861C15.6761 11.6189 15.329 11.4455 14.9545 11.3917C14.58 11.3379 14.1981 11.4066 13.8658 11.5876V5.57993H14.143ZM8.73539 11.1999C8.35622 10.8199 8.14327 10.305 8.14327 9.76816C8.14327 9.23133 8.35622 8.71642 8.73539 8.3364L8.93134 8.14048L13.2707 12.4798C13.3234 12.5325 13.3949 12.5621 13.4695 12.5622C13.5441 12.5622 13.6156 12.5326 13.6684 12.4798L13.8644 12.2839V12.2839C14.0876 12.0612 14.39 11.9361 14.7053 11.9361C15.0206 11.9361 15.323 12.0612 15.5462 12.2839L17.5688 14.3064L16.1371 15.7381C15.7573 16.1178 15.2423 16.3311 14.7053 16.3311C14.1683 16.3311 13.6533 16.1178 13.2736 15.7381L8.73539 11.1999Z" fill="black"/>
<path d="M15.7672 14.3064C15.7673 14.0607 15.6821 13.8227 15.5262 13.6327C15.3703 13.4428 15.1534 13.3128 14.9125 13.2649C14.6715 13.217 14.4214 13.2541 14.2047 13.3699C13.988 13.4857 13.8182 13.6731 13.7242 13.9C13.6302 14.127 13.6178 14.3796 13.6891 14.6147C13.7604 14.8498 13.9111 15.0529 14.1154 15.1894C14.3196 15.3259 14.5649 15.3873 14.8094 15.3632C15.0539 15.3391 15.2825 15.231 15.4562 15.0573C15.5552 14.9589 15.6336 14.8419 15.687 14.713C15.7403 14.5841 15.7676 14.4459 15.7672 14.3064ZM15.0584 14.6596C14.9767 14.7413 14.8692 14.7921 14.7542 14.8034C14.6392 14.8147 14.5239 14.7858 14.4278 14.7216C14.3317 14.6574 14.2609 14.5619 14.2273 14.4513C14.1938 14.3407 14.1997 14.222 14.2439 14.1152C14.2881 14.0085 14.368 13.9203 14.4699 13.8659C14.5718 13.8114 14.6895 13.794 14.8028 13.8165C14.9161 13.8391 15.0181 13.9002 15.0914 13.9896C15.1647 14.0789 15.2048 14.1909 15.2047 14.3064C15.2049 14.372 15.1921 14.437 15.167 14.4977C15.1419 14.5583 15.105 14.6133 15.0584 14.6596Z" fill="black"/>
</svg>
