<svg width="32" height="32" viewBox="0 0 32 32" fill="none" xmlns="http://www.w3.org/2000/svg">
<path d="M9.38537 15.4937C9.4937 15.6025 9.62247 15.6889 9.76428 15.7477C9.90608 15.8066 10.0581 15.8369 10.2117 15.8368C10.2536 15.8367 10.2954 15.8345 10.3371 15.8301C10.5109 15.812 10.6784 15.755 10.8272 15.6635C10.976 15.5719 11.1023 15.4481 11.1968 15.3012L12.3114 13.576L16.6848 13.0313L17.6392 13.6336C17.6817 13.6605 17.7307 13.6754 17.781 13.6769C17.8313 13.6784 17.881 13.6664 17.9251 13.6421C17.9691 13.6178 18.0059 13.5821 18.0314 13.5388C18.057 13.4955 18.0705 13.4461 18.0705 13.3958V10.8687C18.0705 10.8184 18.057 10.769 18.0314 10.7257C18.0059 10.6824 17.9691 10.6467 17.9251 10.6224C17.881 10.5981 17.8313 10.5861 17.781 10.5876C17.7307 10.589 17.6817 10.604 17.6392 10.6308L16.6848 11.2331L14.0381 10.9035L14.8765 9.60592C14.9114 9.5519 14.9267 9.48754 14.9199 9.42357C14.9131 9.35961 14.8846 9.29991 14.8391 9.25443L11.3155 5.73081L11.3152 5.7305L9.98564 4.40091C9.79383 4.20909 9.5661 4.05693 9.31548 3.95311C9.06486 3.8493 8.79624 3.79587 8.52497 3.79587C8.25369 3.79587 7.98507 3.8493 7.73445 3.95311C7.48383 4.05693 7.2561 4.20909 7.06429 4.40091L6.49736 4.96779C6.11055 5.35549 5.89332 5.88079 5.89332 6.42845C5.89332 6.97611 6.11055 7.50141 6.49736 7.88911L6.91665 8.3084L5.26877 9.37307C5.12207 9.46786 4.99842 9.59426 4.9069 9.74302C4.81538 9.89178 4.7583 10.0591 4.73984 10.2328C4.72137 10.4065 4.742 10.5821 4.8002 10.7468C4.8584 10.9115 4.9527 11.061 5.0762 11.1845L9.38534 15.4937L9.38537 15.4937ZM16.7151 11.8038C16.7796 11.8116 16.8449 11.7971 16.8999 11.7625L17.508 11.3787V12.8857L16.8999 12.5019C16.8449 12.4673 16.7796 12.4527 16.7151 12.4607L12.7097 12.9595L13.6991 11.4281L16.7151 11.8038ZM11.2024 14.256L6.33543 9.35361L11.0785 6.28924L14.2807 9.49151L11.2024 14.256ZM6.89511 7.49143C6.61362 7.20928 6.45554 6.82701 6.45554 6.42847C6.45554 6.02992 6.61362 5.64765 6.89511 5.36551L7.46203 4.79863C7.74394 4.51675 8.12628 4.35839 8.52494 4.35839C8.9236 4.35839 9.30594 4.51675 9.58785 4.79863L10.6716 5.88238L7.39987 7.99619L6.89511 7.49143Z" fill="black"/>
<path d="M19.4209 13.5508C19.8242 13.6539 20.2148 13.8013 20.5856 13.9904C20.6186 14.007 20.6546 14.0169 20.6914 14.0195C20.7283 14.0222 20.7653 14.0175 20.8003 14.0059C20.8354 13.9942 20.8678 13.9758 20.8957 13.9516C20.9236 13.9274 20.9465 13.898 20.9631 13.865C20.9796 13.8319 20.9895 13.796 20.9921 13.7591C20.9948 13.7223 20.9901 13.6853 20.9785 13.6502C20.9668 13.6152 20.9484 13.5828 20.9242 13.5549C20.9 13.5269 20.8706 13.5041 20.8376 13.4875C20.4253 13.2766 19.9903 13.1135 19.5411 13.0013C19.4684 12.9859 19.3926 12.9999 19.3302 13.0402C19.2678 13.0805 19.2239 13.1438 19.208 13.2164C19.1922 13.2889 19.2056 13.3648 19.2455 13.4275C19.2854 13.4901 19.3484 13.5345 19.4209 13.5508Z" fill="black"/>
<path d="M22.4794 15.5648C22.5223 15.6258 22.5878 15.6672 22.6613 15.6799C22.7348 15.6927 22.8103 15.6757 22.8713 15.6327C22.9323 15.5898 22.9737 15.5243 22.9864 15.4508C22.9992 15.3774 22.9822 15.3018 22.9392 15.2408C22.6707 14.8629 22.3523 14.5232 21.9926 14.2308C21.964 14.2074 21.9311 14.1898 21.8957 14.1791C21.8604 14.1684 21.8233 14.1648 21.7865 14.1685C21.7498 14.1721 21.7141 14.183 21.6815 14.2004C21.649 14.2179 21.6202 14.2416 21.5968 14.2701C21.5495 14.3278 21.5271 14.402 21.5345 14.4762C21.5418 14.5504 21.5784 14.6187 21.6361 14.6659C21.9565 14.9261 22.2402 15.2285 22.4794 15.5648Z" fill="black"/>
<path d="M23.2077 16.3031C23.1726 16.3146 23.1401 16.3329 23.112 16.3569C23.084 16.381 23.061 16.4103 23.0443 16.4432C23.0276 16.4762 23.0176 16.5121 23.0147 16.5489C23.0119 16.5857 23.0164 16.6228 23.0279 16.6579C23.1541 17.0503 23.2273 17.4579 23.2455 17.8698C23.249 17.9419 23.2801 18.0099 23.3323 18.0597C23.3846 18.1095 23.454 18.1373 23.5262 18.1373C23.5308 18.1373 23.5354 18.1372 23.5401 18.137C23.6146 18.1334 23.6846 18.1003 23.7347 18.0451C23.7848 17.9898 23.811 17.9169 23.8074 17.8424C23.7867 17.3804 23.7044 16.9231 23.5624 16.4829C23.5509 16.4478 23.5327 16.4153 23.5086 16.3873C23.4846 16.3593 23.4552 16.3362 23.4223 16.3195C23.3894 16.3028 23.3535 16.2928 23.3166 16.29C23.2798 16.2872 23.2428 16.2916 23.2077 16.3031Z" fill="black"/>
<path d="M24.5739 13.0701C24.9114 13.3147 25.2209 13.596 25.4965 13.9088C25.5458 13.9648 25.6153 13.9989 25.6897 14.0036C25.7642 14.0084 25.8375 13.9833 25.8935 13.934C25.9495 13.8848 25.9836 13.8152 25.9883 13.7408C25.9931 13.6663 25.968 13.5931 25.9187 13.5371C25.6156 13.1931 25.2753 12.8838 24.9041 12.6148C24.8437 12.5721 24.7689 12.555 24.6959 12.5671C24.6229 12.5792 24.5577 12.6196 24.5143 12.6795C24.4708 12.7393 24.4528 12.8139 24.4639 12.887C24.4751 12.9601 24.5146 13.0259 24.5739 13.0701Z" fill="black"/>
<path d="M22.2955 12.0344C22.7045 12.1358 23.1037 12.2731 23.4885 12.4448C23.5222 12.4601 23.5586 12.4686 23.5956 12.4697C23.6326 12.4709 23.6694 12.4648 23.704 12.4517C23.7387 12.4386 23.7703 12.4188 23.7973 12.3934C23.8242 12.3681 23.8459 12.3377 23.8611 12.3039C23.8762 12.2702 23.8846 12.2338 23.8857 12.1968C23.8868 12.1598 23.8805 12.123 23.8673 12.0884C23.8541 12.0538 23.8343 12.0222 23.8088 11.9953C23.7834 11.9684 23.7529 11.9468 23.7191 11.9318C23.304 11.7465 22.8733 11.5982 22.4321 11.4887C22.3599 11.471 22.2836 11.4826 22.22 11.521C22.1563 11.5594 22.1104 11.6214 22.0923 11.6936C22.0743 11.7657 22.0855 11.842 22.1236 11.9059C22.1617 11.9698 22.2235 12.016 22.2955 12.0344Z" fill="black"/>
<path d="M19.7869 11.8081C19.7888 11.8079 19.9782 11.7884 20.2902 11.7884C20.5362 11.7884 20.7898 11.8002 21.0439 11.8235C21.0527 11.8243 21.0613 11.8246 21.0699 11.8246C21.1422 11.8246 21.2118 11.7966 21.2641 11.7466C21.3163 11.6966 21.3473 11.6283 21.3506 11.556C21.3539 11.4838 21.3291 11.413 21.2816 11.3585C21.234 11.3039 21.1672 11.2698 21.0952 11.2633C20.8241 11.2385 20.5533 11.2259 20.2902 11.2259C19.9453 11.2259 19.7362 11.2478 19.7275 11.2488C19.6538 11.2573 19.5865 11.2945 19.5402 11.3524C19.4939 11.4103 19.4723 11.4841 19.4802 11.5579C19.488 11.6316 19.5246 11.6992 19.5821 11.7461C19.6395 11.7929 19.7131 11.8152 19.7869 11.8081Z" fill="black"/>
<path d="M27.2523 15.9032C27.1091 15.4716 26.9263 15.0543 26.7064 14.6563C26.6884 14.6241 26.6642 14.5957 26.6353 14.5727C26.6063 14.5498 26.5732 14.5328 26.5376 14.5227C26.5021 14.5126 26.4649 14.5096 26.4283 14.5138C26.3916 14.5181 26.3561 14.5295 26.3238 14.5475C26.2915 14.5654 26.2631 14.5896 26.2402 14.6185C26.2172 14.6475 26.2002 14.6807 26.1901 14.7162C26.18 14.7517 26.177 14.7889 26.1813 14.8256C26.1855 14.8623 26.1969 14.8978 26.2149 14.93C26.418 15.2976 26.5867 15.6831 26.7188 16.0816C26.7425 16.1524 26.7933 16.2108 26.86 16.2441C26.9268 16.2774 27.004 16.2828 27.0748 16.2591C27.1455 16.2355 27.204 16.1847 27.2372 16.1179C27.2705 16.0512 27.2759 15.9739 27.2523 15.9032Z" fill="black"/>
<path d="M26.3268 27.206C25.1699 26.4639 23.8348 26.0465 22.4612 25.9977V23.9412H22.6051C23.5919 23.9401 24.538 23.5476 25.2358 22.8498C25.9336 22.152 26.3261 21.206 26.3272 20.2191V19.794C26.3272 19.7691 26.3173 19.7453 26.2997 19.7277C26.2821 19.7101 26.2583 19.7002 26.2334 19.7002H25.8083C24.9653 19.7014 24.1475 19.9883 23.4885 20.5142C22.8296 21.04 22.3683 21.7736 22.18 22.5954C21.9917 21.7736 21.5304 21.04 20.8714 20.5142C20.2124 19.9883 19.3947 19.7014 18.5516 19.7002H18.1265C18.1016 19.7002 18.0778 19.7101 18.0602 19.7277C18.0426 19.7453 18.0327 19.7691 18.0327 19.794V20.2191C18.0339 21.2059 18.4264 22.152 19.1241 22.8498C19.8219 23.5476 20.768 23.9401 21.7548 23.9412H21.8987V25.9977C20.5251 26.0466 19.1899 26.4639 18.0331 27.2061C17.5889 27.4906 17.0724 27.6419 16.5449 27.6418C16.0174 27.6418 15.5009 27.4906 15.0568 27.206C13.8999 26.4639 12.5648 26.0466 11.1912 25.9978V23.9412H11.3351C12.3219 23.9401 13.268 23.5476 13.9658 22.8498C14.6636 22.152 15.0561 21.206 15.0572 20.2191V19.794C15.0572 19.7691 15.0473 19.7453 15.0297 19.7277C15.0122 19.7101 14.9883 19.7002 14.9634 19.7002H14.5383C13.6952 19.7014 12.8775 19.9883 12.2185 20.5142C11.5595 21.04 11.0983 21.7736 10.9099 22.5954C10.7216 21.7736 10.2604 21.04 9.60138 20.5142C8.94241 19.9883 8.12466 19.7014 7.28162 19.7002H6.85648C6.83162 19.7002 6.80777 19.7101 6.79019 19.7277C6.77261 19.7453 6.76273 19.7691 6.76273 19.794V20.2191C6.76384 21.206 7.15635 22.152 7.85413 22.8498C8.55191 23.5476 9.49799 23.9401 10.4848 23.9412H10.6287V25.9978C9.25515 26.0466 7.92002 26.464 6.76315 27.206C6.7004 27.2463 6.65622 27.3099 6.64035 27.3828C6.62448 27.4557 6.63821 27.5319 6.67853 27.5947C6.71885 27.6574 6.78244 27.7016 6.85533 27.7175C6.92821 27.7333 7.00441 27.7196 7.06717 27.6793C8.21433 26.945 9.54786 26.5547 10.9099 26.5547C12.272 26.5547 13.6055 26.9449 14.7527 27.6792C15.2876 28.022 15.9096 28.2041 16.5449 28.2041C17.1802 28.2041 17.8022 28.022 18.3371 27.6793C19.4843 26.9449 20.8179 26.5547 22.18 26.5547C23.5421 26.5547 24.8756 26.9449 26.0228 27.6793C26.0539 27.6997 26.0887 27.7138 26.1252 27.7206C26.1618 27.7275 26.1993 27.7271 26.2357 27.7193C26.272 27.7116 26.3065 27.6967 26.3371 27.6756C26.3677 27.6545 26.3938 27.6275 26.4139 27.5962C26.434 27.5649 26.4476 27.53 26.4541 27.4934C26.4606 27.4568 26.4598 27.4192 26.4517 27.3829C26.4436 27.3467 26.4284 27.3123 26.4069 27.282C26.3855 27.2516 26.3582 27.2258 26.3268 27.206ZM10.941 23.9322H10.8789C10.834 23.9322 10.7897 23.9215 10.7497 23.9009C10.7097 23.8803 10.6753 23.8504 10.6493 23.8137C10.6422 23.8036 9.92569 22.8014 9.06137 22.1768C9.03144 22.1552 9.00605 22.1279 8.98667 22.0964C8.9673 22.065 8.9543 22.03 8.94843 21.9936C8.94256 21.9571 8.94392 21.9198 8.95245 21.8839C8.96098 21.848 8.97651 21.814 8.99814 21.7841C9.01978 21.7542 9.04709 21.7288 9.07854 21.7094C9.10998 21.69 9.14493 21.677 9.1814 21.6712C9.21786 21.6653 9.25513 21.6667 9.29106 21.6752C9.327 21.6837 9.36091 21.6992 9.39084 21.7209C10.0567 22.202 10.6238 22.8643 10.9099 23.2266C11.1961 22.8643 11.7632 22.202 12.429 21.7209C12.4895 21.6772 12.5648 21.6593 12.6385 21.6712C12.7121 21.683 12.7781 21.7237 12.8217 21.7841C12.8654 21.8446 12.8833 21.9199 12.8715 21.9936C12.8596 22.0672 12.819 22.1331 12.7585 22.1768C11.8942 22.8014 11.1777 23.8036 11.1706 23.8137C11.1446 23.8504 11.1102 23.8803 11.0702 23.9009C11.0302 23.9215 10.9859 23.9322 10.941 23.9322ZM22.211 23.9322H22.1489C22.104 23.9322 22.0597 23.9215 22.0197 23.9009C21.9797 23.8803 21.9453 23.8504 21.9193 23.8137C21.9122 23.8036 21.1957 22.8014 20.3314 22.1768C20.3014 22.1552 20.2761 22.1279 20.2567 22.0964C20.2373 22.065 20.2243 22.03 20.2184 21.9936C20.2126 21.9571 20.2139 21.9198 20.2225 21.8839C20.231 21.848 20.2465 21.814 20.2681 21.7841C20.2898 21.7542 20.3171 21.7288 20.3485 21.7094C20.38 21.69 20.4149 21.677 20.4514 21.6712C20.4879 21.6653 20.5251 21.6667 20.5611 21.6752C20.597 21.6837 20.6309 21.6992 20.6608 21.7209C21.3267 22.202 21.8938 22.8643 22.1799 23.2266C22.4661 22.8643 23.0332 22.202 23.699 21.7209C23.729 21.6992 23.7629 21.6837 23.7988 21.6752C23.8348 21.6667 23.872 21.6653 23.9085 21.6712C23.945 21.677 23.9799 21.69 24.0114 21.7094C24.0428 21.7288 24.0701 21.7542 24.0917 21.7841C24.1134 21.814 24.1289 21.848 24.1374 21.8839C24.146 21.9198 24.1473 21.9571 24.1415 21.9936C24.1356 22.03 24.1226 22.065 24.1032 22.0964C24.0838 22.1279 24.0585 22.1552 24.0285 22.1768C23.1642 22.8014 22.4477 23.8036 22.4406 23.8137C22.4146 23.8504 22.3802 23.8803 22.3402 23.9009C22.3003 23.9215 22.2559 23.9322 22.211 23.9322Z" fill="black"/>
</svg>
