<svg width="44" height="44" viewBox="0 0 44 44" fill="none" xmlns="http://www.w3.org/2000/svg">
<path d="M19 24C17.346 24 16 22.654 16 21C16 19.346 17.346 18 19 18C20.654 18 22 19.346 22 21C22 22.654 20.654 24 19 24ZM19 20C18.448 20 18 20.448 18 21C18 21.552 18.448 22 19 22C19.552 22 20 21.552 20 21C20 20.448 19.552 20 19 20Z" fill="#CCCCCC"/>
<path d="M23 17C23.5523 17 24 16.5523 24 16C24 15.4477 23.5523 15 23 15C22.4477 15 22 15.4477 22 16C22 16.5523 22.4477 17 23 17Z" fill="#CCCCCC"/>
<path d="M20 34C20.5523 34 21 33.5523 21 33C21 32.4477 20.5523 32 20 32C19.4477 32 19 32.4477 19 33C19 33.5523 19.4477 34 20 34Z" fill="#CCCCCC"/>
<path d="M22 40C22.5523 40 23 39.5523 23 39C23 38.4477 22.5523 38 22 38C21.4477 38 21 38.4477 21 39C21 39.5523 21.4477 40 22 40Z" fill="#CCCCCC"/>
<path d="M26 36C27.1046 36 28 35.1046 28 34C28 32.8954 27.1046 32 26 32C24.8954 32 24 32.8954 24 34C24 35.1046 24.8954 36 26 36Z" fill="#CCCCCC"/>
<path d="M30 12.5V12C31.654 12 33 10.654 33 9C33 7.346 31.654 6 30 6H29.513L29.961 3.314C29.986 3.161 30 3.005 30 2.847C30 1.277 28.723 0 27.153 0H16.847C15.277 0 14 1.277 14 2.847C14 3.005 14.014 3.161 14.039 3.315L14.487 6H14C12.346 6 11 7.346 11 9C11 10.654 12.346 12 14 12V12.5C14 13.897 13.538 15.282 12.7 16.399C11.604 17.861 11 19.673 11 21.5V41C11 42.654 12.346 44 14 44H30C31.654 44 33 42.654 33 41V21.5C33 19.673 32.396 17.861 31.3 16.399C30.462 15.282 30 13.897 30 12.5ZM16.012 2.986C16.004 2.94 16 2.894 16 2.847C16 2.38 16.38 2 16.847 2H27.154C27.62 2 28 2.38 28 2.847C28 2.894 27.996 2.941 27.988 2.987L27.486 6H16.514L16.012 2.986ZM13 9C13 8.448 13.448 8 14 8H30C30.552 8 31 8.448 31 9C31 9.552 30.552 10 30 10H14C13.448 10 13 9.552 13 9ZM31 41C31 41.552 30.552 42 30 42H14C13.448 42 13 41.552 13 41V28.963C14.235 29.647 15.616 29.997 17 29.997C19.062 29.997 21.125 29.238 22.695 27.719C24.973 25.514 28.612 25.449 31 27.478V41ZM31 25.037C27.924 23.333 23.929 23.742 21.305 26.282C19.027 28.487 15.388 28.552 13 26.523V21.5C13 20.103 13.462 18.718 14.3 17.601C15.397 16.139 16 14.328 16 12.5V12H28V12.5C28 14.327 28.604 16.139 29.7 17.601C30.538 18.718 31 20.103 31 21.5V25.037Z" fill="#CCCCCC"/>
</svg>
